# xmcd CD database file
#
# Track frame offsets:
#	150
#	23497
#	44370
#	72522
#
# Disc length: 1331 seconds
#
# Revision: 0
# Processed by: cddbd v1.5.1PL0 Copyright (c) Steve Scherf et al.
# Submitted via: CDex 1.51
#
DISCID=2d053104
DTITLE=ACIDMAN - equal e.p.
DYEAR=2004
DGENRE=ロック (一般)
TTITLE0=イコール
TTITLE1=コーダ
TTITLE2=talk(inst.)
TTITLE3=CD-EXTRA
EXTD=YEAR: 2004
EXTT0=
EXTT1=
EXTT2=
EXTT3=
PLAYORDER=
